<?xml version="1.0" encoding="UTF-8"?>
<svg id="Layer_2" data-name="Layer 2" xmlns="http://www.w3.org/2000/svg" viewBox="0 0 809.77 188.56">
  <defs>
    <style>
      .cls-1 {
        fill: #4980d3;
      }

      .cls-2 {
        fill: #010101;
      }

      .cls-3 {
        fill: #3a8f6d;
      }

      .cls-4 {
        fill: #38906b;
      }

      .cls-5 {
        fill: #388f6a;
      }

      .cls-6 {
        fill: #378f69;
      }

      .cls-7 {
        fill: #437fda;
      }

      .cls-8 {
        fill: #3b916d;
      }
    </style>
  </defs>
  <g id="Layer_1-2" data-name="Layer 1">
    <g>
      <path class="cls-7" d="M163.61,29.36c10,10.61,26.14,38.37,23.31,53.06-.41,2.12-3.9,5.45-5.91,6.07-3.69,1.14-21.95.92-26.57.48-13.58-1.27-11.39-11.34-18.96-19-1.82-1.84-6.43-4.78-8.81-6.17-4.97-2.9-16.3-6.34-19.6-9.37-5.17-4.75.17-7.74,1.71-11.18,4.82-10.8,3.69-29.16-9.93-32.53-18.1-4.47-22.62,15.63-18.54,29.5,1.83,6.23,10,10.2.44,15.95-10.18,6.12-19.64,5.63-28.12,16.84-6.72,8.88-3.85,14.62-18.07,15.9-5.56.5-24.9.9-28.71-1.96-7.03-5.28.88-26.79,4.06-33.66C37.53-6.36,118.76-18.22,163.61,29.36Z"/>
      <path class="cls-3" d="M5.8,98.12c14.2.92,31.89-2.02,45.66-.12s16.12,15.99,19.07,26.88c3.79,13.97,9.19,39.42,7.52,53.45-.67,5.6-3.92,8.82-9.49,9.49-8.29.99-31.73.99-40.02,0-4.21-.51-9.76-4.56-11.93-8.05-3.48-5.59-9.08-31.18-10.85-39.09-1.89-8.42-7.51-30.52-5.23-37.82.68-2.17,3.04-4.23,5.26-4.73Z"/>
      <path class="cls-8" d="M187.59,100.26c4.42,4.41,1.89,14.14,1.04,19.81-1.62,10.75-11.19,54.17-16.68,61.23-2.67,3.44-7.16,6-11.49,6.5-8.08.92-32.15,1.1-40.01.04-4.17-.56-7.93-4.3-8.49-8.49-1.98-14.63,4.13-42.13,8.32-56.68,3.3-11.45,5.24-23.32,19.21-24.74,9.59-.97,33.63-1.2,42.99-.06,1.89.23,3.78,1.07,5.1,2.39Z"/>
      <path d="M769.52,90.91c1.19.89,4.14-2.55,5-3.46,4.52-4.82,14.22-19.58,19.21-21.74,8.32-3.6,19.16,4.98,15.19,14.18-2.67,5.46-23.54,26.63-23.42,30.53l23.42,29.47c3.82,9.96-7.58,18.93-16.39,13.39-5.99-3.77-17.23-22.75-21.56-24.4l-20.73,24.26c-9.59,5.53-21.54-2.97-16.78-13.87l23.1-28.88c0-3.95-24.7-26.58-24.7-33.78.41-7.21,6.76-12.5,13.9-11.47,6.44.93,17.65,17.86,22.78,23.3.6.64.91,1.6.99,2.47Z"/>
      <path d="M503.35,93.28c-12.73-13.11-33-3.48-33.41,14.13-.24,10.64,1.8,22.99.83,33.99-1.55,17.57-20.79,16.89-22.07,3-1.05-11.46-1.17-43.55,2.56-53.46,12.45-33.1,60.74-33.78,75.16-2.24,5.25,11.48,5.83,42.89,4.29,55.68-1.44,11.95-16.47,13.97-21.56,3.53-3-14.39,4.65-43.85-5.8-54.62Z"/>
      <path class="cls-5" d="M273.88,65.95h18.49c.57,0,5.42,2.63,6.16,3.33,3.87,3.69,4.26,9.83,1.56,14.37-.59.99-4.33,4.27-4.72,4.27h-19.98c-1.09,0-1.43,2.44-1.55,3.44-1.88,16,1.62,35.69.09,52.02-1.22,13.04-16.38,14.51-20.5,5.44-1.6-3.52-.29-19.23-.48-24.49-.88-24.36-7.77-69.44,12.48-86.31,8.27-6.89,34.74-13.23,36.47,2.45,2.52,22.77-29.53,2.45-28.01,25.48Z"/>
      <path class="cls-4" d="M369.81,65.95c9.16,3.65,27.09-4.71,30.51,7.96,1.22,4.55-2.57,14.01-7.03,14.01h-23.48v35.45c0,2.7,6.05,8.26,8.96,9.02,6.86,1.79,21.49-2.42,22.08,9.97.6,12.66-13.55,12.3-22.58,11.51-12.92-1.13-26.66-13.13-28.99-25.95-2.05-11.31-1.34-25.9-1.49-37.45-.14-10.28-1.6-33.86.47-42.55,3.05-12.79,21.55-8.12,21.55.57v17.48Z"/>
      <path class="cls-6" d="M321.6,66.17c7.78-1.29,12.42,3.93,13.24,11.26,2.36,21.04-1.71,46.34-.07,67.85-1.83,11.99-20.28,12.37-21.92-1.93-2.4-20.97,1.71-46.37.09-67.82.52-4.65,4.05-8.6,8.65-9.36Z"/>
      <path d="M420.48,66.17c6.72-1.55,13.48,2.28,14.3,9.25,2.58,21.77-1.92,48.55-.08,70.87-2.94,11.12-18.02,10.84-20.98.11,1.7-22.49-3.47-47.78-.95-69.96.49-4.3,3.17-9.23,7.7-10.27Z"/>
      <path class="cls-1" d="M97.03,101.9l6.76-18.7c4.43-6.89,8.06,2,11.74,2.7s22.37-2.17,21.4,3.4c-5.87,6.11-21.95,5.07-28.4-.38-1.5.33-6.85,21.41-8.32,24.66-1.99,4.41-5.19,7.21-7.51,1.13l-6.69-32.77c-2.94,1.79-4.52,16.53-6.62,17.03-4.3,1.04-8.5-4.92-13.07-5.83-5.48-1.09-14.11,2.42-12.27-6.22,7.69.33,14.81-1.61,21.47,3,1.87-.41,6.37-21.4,8.3-24.68,2.04-3.48,4.25-2.99,5.95.47l7.27,36.18Z"/>
      <path class="cls-2" d="M422.53,30.19c13.61-1.56,19.76,17.64,7.24,23.29-18.45,8.32-25.77-21.16-7.24-23.29Z"/>
      <path class="cls-6" d="M319.55,31.22c18.79-4.33,22.15,21.7,5.52,23.57-14.63,1.64-18.23-20.64-5.52-23.57Z"/>
      <path d="M630.61,42.48c-.99-8.83-7.96-14.27-16.73-10.72-1.4.57-5.25,4.61-5.25,5.73v34.45c-14.45-7.42-30.68-8.92-45.27-.81-10.87,6.04-20.1,18.89-21.57,31.37-7.47,63.53,84.58,73.22,88.87,5.93,1.09-17.09,1.8-49.46-.04-65.96ZM581.38,132.62c-23.87-4.09-23.21-40.66-1-44.46,38.35-6.56,35.76,50.42,1,44.46Z"/>
      <path d="M721.84,102.7c12.3-39.1-56-52.16-76.05-16.08-12.02,21.63-5.89,52.02,17.12,63.4,9.28,4.58,36.75,5.4,47.08,3.76,9.62-1.53,11.68-15.27,2.25-20.11-13.78-7.08-40.56,8.71-48.66-12.78h36.47c9.27,0,19.11-9.69,21.78-18.18ZM686.08,98.92c-1.96.08-3.87,1.03-6.01,1.07-4.78.09-10.01-2.44-15.48-.09-.11-6.39,7.86-11.11,13.57-11.89,5.36-.73,22.52-1.85,23.18,5.56.65,7.19-10.99,5.17-15.27,5.34Z"/>
    </g>
  </g>
</svg>