<?xml version="1.0" encoding="UTF-8"?>
<svg id="Layer_2" data-name="Layer 2" xmlns="http://www.w3.org/2000/svg" xmlns:xlink="http://www.w3.org/1999/xlink" viewBox="0 0 1024 1024">
  <defs>
    <style>
      .cls-1 {
        fill: #4980d3;
      }

      .cls-2 {
        fill: #3a8f6d;
      }

      .cls-3 {
        fill: url(#radial-gradient);
      }

      .cls-4 {
        fill: #437fda;
      }

      .cls-5 {
        fill: #3b916d;
      }
    </style>
    <radialGradient id="radial-gradient" cx="512" cy="512" fx="512" fy="512" r="512" gradientUnits="userSpaceOnUse">
      <stop offset="0" stop-color="#fff" stop-opacity=".5"/>
      <stop offset="0" stop-color="#fff" stop-opacity=".55"/>
      <stop offset="0" stop-color="#fff" stop-opacity=".66"/>
      <stop offset="0" stop-color="#fff" stop-opacity=".74"/>
      <stop offset="0" stop-color="#fff" stop-opacity=".81"/>
      <stop offset="0" stop-color="#fff" stop-opacity=".86"/>
      <stop offset="0" stop-color="#fff" stop-opacity=".88"/>
      <stop offset="0" stop-color="#fff" stop-opacity=".89"/>
      <stop offset=".04" stop-color="#fbfbfb" stop-opacity=".89"/>
      <stop offset=".29" stop-color="#efefef" stop-opacity=".91"/>
      <stop offset="1" stop-color="#ececec" stop-opacity=".92"/>
      <stop offset="1" stop-color="#ebebeb" stop-opacity=".92"/>
      <stop offset="1" stop-color="#d2d2d2" stop-opacity=".95"/>
      <stop offset="1" stop-color="silver" stop-opacity=".98"/>
      <stop offset="1" stop-color="#b5b5b5" stop-opacity="1"/>
      <stop offset="1" stop-color="#b3b3b3"/>
    </radialGradient>
  </defs>
  <g id="Layer_1-2" data-name="Layer 1">
    <g>
      <rect class="cls-3" width="1024" height="1024"/>
      <g>
        <path class="cls-4" d="M717.4,317.47c29.97,31.79,78.32,114.96,69.84,158.97-1.22,6.34-11.69,16.32-17.72,18.18-11.05,3.4-65.76,2.75-79.62,1.45-40.68-3.82-34.11-33.99-56.8-56.93-5.45-5.52-19.25-14.31-26.41-18.49-14.89-8.7-48.85-18.99-58.73-28.07-15.49-14.23.52-23.2,5.11-33.49,14.44-32.35,11.05-87.38-29.76-97.46-54.25-13.39-67.78,46.84-55.55,88.4,5.5,18.67,29.98,30.55,1.32,47.79-30.51,18.35-58.84,16.86-84.25,50.45-20.13,26.62-11.54,43.81-54.14,47.63-16.66,1.49-74.62,2.7-86.03-5.88-21.06-15.83,2.64-80.28,12.17-100.86,82.79-178.72,326.2-214.24,460.58-71.7Z"/>
        <path class="cls-2" d="M244.54,523.52c42.54,2.76,95.54-6.05,136.82-.37s48.29,47.9,57.15,80.53c11.37,41.87,27.54,118.12,22.53,160.15-2,16.78-11.73,26.43-28.44,28.43-24.85,2.96-95.08,2.98-119.9,0-12.62-1.52-29.24-13.65-35.74-24.12-10.42-16.76-27.19-93.41-32.51-117.12-5.66-25.24-22.51-91.43-15.67-113.32,2.03-6.51,9.12-12.68,15.77-14.17Z"/>
        <path class="cls-5" d="M789.25,529.93c13.23,13.22,5.67,42.38,3.11,59.34-4.86,32.22-33.54,162.31-49.97,183.46-8.01,10.31-21.45,17.98-34.42,19.46-24.22,2.76-96.33,3.31-119.89.13-12.5-1.69-23.75-12.87-25.45-25.43-5.93-43.82,12.37-126.23,24.93-169.84,9.88-34.31,15.7-69.88,57.57-74.12,28.73-2.91,100.77-3.6,128.82-.17,5.65.69,11.31,3.2,15.29,7.17Z"/>
        <path class="cls-1" d="M517.89,534.83l20.24-56.02c13.26-20.63,24.16,6,35.18,8.09,10.97,2.09,67.04-6.5,64.12,10.19-17.6,18.31-65.76,15.2-85.1-1.13-4.49.98-20.53,64.15-24.92,73.87-5.96,13.21-15.55,21.6-22.49,3.37l-20.03-98.19c-8.81,5.37-13.55,49.51-19.85,51.03-12.89,3.1-25.48-14.75-39.17-17.46-16.43-3.26-42.28,7.25-36.77-18.64,23.03,1,44.36-4.83,64.32,9,5.6-1.24,19.1-64.11,24.86-73.96,6.11-10.43,12.73-8.95,17.83,1.41l21.77,108.42Z"/>
      </g>
    </g>
  </g>
</svg>